HIERARCHY
ROOT pelvis
{
  OFFSET 0 100 0
  CHANNELS 6 Xposition Yposition Zposition Zrotation Xrotation Yrotation
  JOINT pelvis_right_femur
  {
    OFFSET -10.78128 -3.44521 -0.5502486
    CHANNELS 3 Zrotation Xrotation Yrotation
    JOINT right_femur_tibia
    {
      OFFSET -0.8047443 -44.0398 -0.1307829
      CHANNELS 3 Zrotation Xrotation Yrotation
      JOINT right_tibia_foot
      {
        OFFSET 3.006224 -47.83518 -5
        CHANNELS 3 Zrotation Xrotation Yrotation
        End Site
        {
          OFFSET 0 -5 15
        }
      }
    }
  }
  JOINT pelvis_left_femur
  {
    OFFSET 10.78128 -3.44521 -0.5502486
    CHANNELS 3 Zrotation Xrotation Yrotation
    JOINT left_femur_tibia
    {
      OFFSET 0.8047443 -44.0398 -0.1307829
      CHANNELS 3 Zrotation Xrotation Yrotation
      JOINT left_tibia_foot
      {
        OFFSET -4.370144 -48.10324 -4.275266
        CHANNELS 3 Zrotation Xrotation Yrotation
        End Site
        {
          OFFSET 0 -5 15
        }
      }
    }
  }
  JOINT pelvis_spine1
  {
    OFFSET 0 6.468898 -3.129235
    CHANNELS 3 Zrotation Xrotation Yrotation
    JOINT spine1
    {
      OFFSET 0 23.15396 4.99043
      CHANNELS 3 Zrotation Xrotation Yrotation
      JOINT spine2
      {
        OFFSET 0 20.79997 -5.064912
        CHANNELS 3 Zrotation Xrotation Yrotation
        JOINT neck
        {
          OFFSET 0 14.38658 9.616178
          CHANNELS 3 Zrotation Xrotation Yrotation
          End Site
          {
            OFFSET 0 20 0
          }
        }
      }
      JOINT right_manubrium
      {
        OFFSET -5.722621 16.35077 3.967754
        CHANNELS 3 Zrotation Xrotation Yrotation
        JOINT right_clavicle
        {
          OFFSET -13.16364 1.694482 -4.693211
          CHANNELS 3 Zrotation Xrotation Yrotation
          JOINT right_humerus
          {
            OFFSET -28.5034 -0.3100689 -2.792744
            CHANNELS 3 Zrotation Xrotation Yrotation
            JOINT right_radius
            {
              OFFSET -25.15693 0.02248979 -1.271978
              CHANNELS 3 Zrotation Xrotation Yrotation
              End Site
              {
                OFFSET -15 0 0
              }
            }
          }
        }
      }
      JOINT left_manubrium
      {
        OFFSET 5.722621 16.35077 3.967754
        CHANNELS 3 Zrotation Xrotation Yrotation
        JOINT left_clavicle
        {
          OFFSET 13.16364 1.694482 -4.693211
          CHANNELS 3 Zrotation Xrotation Yrotation
          JOINT left_humerus
          {
            OFFSET 29.39168 -1.063119 -2.237045
            CHANNELS 3 Zrotation Xrotation Yrotation
            JOINT left_radius
            {
              OFFSET 24.59957 -0.9528479 0.9047498
              CHANNELS 3 Zrotation Xrotation Yrotation
              End Site
              {
                OFFSET 15 -0 -0
              }
            }
          }
        }
      }
    }
  }
}
MOTION
Frames: 11
Frame Time: 0.0416666666667
0 103.5113 0 0.2768097 -0.9084821 -0.25894 4.409064 -16.57521 10.53626 -0 43.61407 -0 -7.294353 -16.40468 -3.199853 -6.419192 8.835535 -22.18766 -0 6.422715 -0 12.856 -13.17712 29.08599 -3.466067 -4.070679 4.725941 2.660485 11.17261 -8.132631 1.055278 21.34697 6.754521 3.433359 -24.19034 8.837523 7.866059 -20.4869 12.50119 84.78737 38.26978 -17.90295 -0 0 16.86264 -7.83921 8.698083 4.21723 5.782368 -20.27411 -1.742919 -92.3195 20.9 20.93064 0 0 -13.3868 13.94858 15.38909 -2.721366
0.3362135 104.3906 1.574231 0.2921336 -0.9378289 -0.4525579 4.179587 -17.17686 9.964973 -0 43.26771 -0 -7.456456 -15.56244 -3.263571 -6.359604 9.086155 -21.59797 -0 6.026162 -0 12.64075 -13.40036 28.38941 -3.493645 -3.896725 4.550585 2.663737 11.17117 -8.243037 0.9437346 21.34705 6.840999 3.443691 -24.011 8.719345 7.766801 -20.29209 12.5092 85.10732 38.27699 -18.1998 -0 0 16.24828 -8.424625 8.937748 4.551257 5.768977 -20.49871 -1.957339 -91.70064 20.7028 20.27358 0 0 -14.05598 13.8767 15.15921 -2.604131
0.6661881 104.9025 3.45786 0.2401802 -0.2882713 -0.5808145 4.39172 -20.20821 8.982935 -0 37.57568 -0 -7.025067 -14.20789 -3.026723 -6.361462 9.788581 -20.71121 -0 5.218096 -0 11.65088 -15.76788 27.25766 -3.54384 -3.454354 4.599423 2.786673 10.68067 -8.278479 1.066375 21.09729 6.921006 3.555366 -24.37022 8.857102 7.058159 -19.88571 12.14425 85.4191 37.13312 -18.62604 -0 0 15.9286 -8.627438 8.855494 4.556199 6.577615 -20.95055 -1.612025 -91.48799 20.53361 19.37171 0 0 -15.07363 13.95233 15.05541 -2.825011
0.9853856 105.0765 5.70278 0.1776366 0.3450524 -0.6224933 4.573185 -23.14764 7.949023 -0 32.23662 -0 -6.713846 -12.55522 -2.769993 -6.353192 10.56112 -19.73117 -0 4.788212 -0 10.55435 -17.94273 25.96243 -3.556103 -3.044977 4.608671 2.893641 10.24312 -8.33542 1.16 20.8307 7.004119 3.684591 -24.68664 8.941446 6.391845 -19.4487 11.80981 85.80719 36.06784 -19.13473 -0 0 15.45911 -8.915961 8.789384 4.559925 7.348296 -21.43381 -1.304933 -91.15682 20.18642 18.40014 0 0 -16.13422 14.13698 14.88213 -3.196064
1.2904 104.9751 8.333025 0.07685543 1.042574 -0.5660166 4.819706 -25.95262 7.033689 -0 27.18734 -0 -6.450118 -10.70063 -2.542952 -6.340485 11.4266 -18.79825 -0 4.799164 -0 9.182145 -20.02208 24.51367 -3.520748 -2.685798 4.591788 3.014927 9.809667 -8.43181 1.232231 20.52478 7.103286 3.825484 -25.06917 9.011221 5.805132 -19.01816 11.49772 86.22692 35.12854 -19.76937 -0 0 14.94344 -9.138991 8.760567 4.543235 8.029079 -21.87048 -0.9871869 -90.94229 20.0919 17.66372 0 0 -17.22462 13.94653 14.75951 -3.100549
1.576517 104.6637 11.40531 -0.08020285 1.76032 -0.3957266 5.131135 -28.64195 6.154675 -0 22.51093 -0 -6.319295 -8.548666 -2.30151 -6.295475 12.36984 -17.80488 -0 5.402913 -0 7.57016 -21.86031 22.84198 -3.403244 -2.36204 4.525563 3.128239 9.417088 -8.554764 1.278924 20.18224 7.209481 3.986606 -25.4579 9.039475 5.283759 -18.56417 11.21149 86.69884 34.29156 -20.49498 -0 0 14.3159 -9.383638 8.757363 4.50339 8.640684 -22.304 -0.6947688 -90.7057 19.95202 16.98691 0 0 -18.30333 13.71045 14.59607 -2.955442
1.838767 104.235 14.97626 -0.3267985 2.484034 -0.09743071 5.552885 -31.08493 5.387971 -0 18.45396 -0 -6.356779 -6.145665 -2.069285 -6.186955 13.36731 -16.77568 -0 6.76773 -0 5.65593 -23.30085 20.91085 -3.163863 -2.077728 4.384519 3.234254 9.078502 -8.712481 1.289117 19.80584 7.327411 4.15966 -25.8555 9.021664 4.869163 -18.09624 10.96669 87.21427 33.62508 -21.31475 -0 0 13.5762 -9.643842 8.819242 4.463288 9.110408 -22.69738 -0.459802 -90.48091 19.87905 16.45625 0 0 -19.33449 13.28566 14.39871 -2.561048
2.072059 103.8068 19.10831 -0.6924879 3.148762 0.3338475 6.125595 -33.0908 4.757684 -0 15.30104 -0 -6.636754 -3.587133 -1.82674 -5.977407 14.34579 -15.69255 -0 9.157536 -0 3.481709 -24.07686 18.72998 -2.748013 -1.835755 4.146973 3.316907 8.826907 -8.892039 1.251846 19.41738 7.446606 4.336491 -26.21882 8.934875 4.576026 -17.61693 10.77745 87.76564 33.14713 -22.17729 -0 0 12.72125 -9.938891 8.935326 4.427109 9.389879 -23.03075 -0.3283195 -90.24265 19.77066 16.05638 0 0 -20.21198 12.79112 14.12738 -2.061993
2.272951 103.5254 23.84853 -1.201251 3.666255 0.8818723 6.886123 -34.34681 4.326808 -0 13.38663 -0 -7.21301 -1.116172 -1.580158 -5.620047 15.16767 -14.58045 -0 12.86002 -0 1.12275 -23.85986 16.3679 -2.097917 -1.63742 3.797604 3.362929 8.690683 -9.076376 1.152735 19.05633 7.556331 4.496495 -26.50267 8.758878 4.42685 -17.14368 10.66369 88.32539 32.89032 -23.00967 -0 0 11.78851 -10.27027 9.106886 4.424392 9.393793 -23.24821 -0.3595115 -90.0165 19.64166 15.84179 0 0 -20.80227 12.21868 13.76464 -1.43259
2.442147 103.5518 29.20169 -1.83731 3.895267 1.487523 7.810784 -34.41857 4.114124 -0 12.9425 -0 -8.107432 0.8559428 -1.343868 -5.080567 15.58514 -13.47493 -0 18.16957 -0 -1.228856 -22.29729 13.99861 -1.17749 -1.477054 3.356321 3.351422 8.698364 -9.225598 0.9801484 18.79268 7.636043 4.612824 -26.62928 8.468604 4.410338 -16.7047 10.64265 88.84466 32.83065 -23.68135 -0 0 10.86824 -10.64195 9.299852 4.492205 9.055114 -23.28592 -0.6143184 -89.84461 19.46847 15.85249 0 0 -20.92255 11.61888 13.29266 -0.7319283
2.586195 104.0253 35.08991 -2.50755 3.666376 2.028356 8.746711 -32.83451 4.066751 -0 13.82861 -0 -9.230216 1.790972 -1.17493 -4.365316 15.21659 -12.43047 -0 25.25854 -0 -3.323586 -19.18844 11.87139 -0.02468786 -1.328496 2.916227 3.258657 8.867965 -9.274858 0.740124 18.71613 7.662915 4.66129 -26.50505 8.054756 4.470234 -16.34351 10.72538 89.24682 32.86551 -24.02586 -0 0 10.12564 -11.07952 9.479238 4.686417 8.360298 -23.09289 -1.130478 -89.80142 19.2661 16.12896 0 0 -20.42472 11.00323 12.71389 0.02671612
